<svg width="80" height="80" viewBox="0 0 80 80" fill="none" xmlns="http://www.w3.org/2000/svg">
<g clip-path="url(#clip0_1_147)">
<path fill-rule="evenodd" clip-rule="evenodd" d="M77.3333 61.3334H2.66667C1.19467 61.3334 0 62.5254 0 64C0 65.4747 1.19467 66.6667 2.66667 66.6667H77.3333C78.8053 66.6667 80 65.4747 80 64C80 62.5254 78.8053 61.3334 77.3333 61.3334ZM8 35.7707C9.04267 36.8134 10.7307 36.8134 11.7707 35.7707C12.8133 34.728 12.8133 33.0427 11.7707 32L8 28.2294C6.95733 27.1867 5.272 27.1867 4.22933 28.2294C3.18666 29.272 3.18666 30.9574 4.22933 32L8 35.7707ZM72 35.7707L75.7707 32C76.8133 30.9574 76.8133 29.272 75.7707 28.2294C74.728 27.1867 73.0427 27.1867 72 28.2294L68.2293 32C67.1867 33.0427 67.1867 34.728 68.2293 35.7707C69.272 36.8134 70.9573 36.8134 72 35.7707ZM72 56C69.9493 40.9574 56.256 29.3334 40 29.3334C23.744 29.3334 10.0507 40.9574 8 56H72ZM40 24C41.472 24 42.6667 22.808 42.6667 21.3334V16C42.6667 14.528 41.472 13.3334 40 13.3334C38.528 13.3334 37.3333 14.528 37.3333 16V21.3334C37.3333 22.808 38.528 24 40 24Z" fill="black"/>
</g>
<defs>
<clipPath id="clip0_1_147">
<rect width="80" height="80" fill="white"/>
</clipPath>
</defs>
</svg>
