<svg width="80" height="80" viewBox="0 0 80 80" fill="none" xmlns="http://www.w3.org/2000/svg">
<path fill-rule="evenodd" clip-rule="evenodd" d="M40 60C49.665 60 57.5 52.165 57.5 42.5V17.5C57.5 7.835 49.665 0 40 0C30.335 0 22.5 7.835 22.5 17.5V42.5C22.5 52.165 30.335 60 40 60ZM67.5 47.5H62.5C60.2225 57.5175 50.705 65 40 65C29.295 65 19.7775 57.5175 17.5 47.5H12.5C14.7075 59.4975 25.1575 68.775 37.5 69.8875V75H35C33.62 75 32.5 76.12 32.5 77.5C32.5 78.8825 33.62 80 35 80H45C46.38 80 47.5 78.8825 47.5 77.5C47.5 76.12 46.38 75 45 75H42.5V69.8875C54.8425 68.775 65.2925 59.4975 67.5 47.5Z" fill="black"/>
</svg>
