<svg width="80" height="80" viewBox="0 0 80 80" fill="none" xmlns="http://www.w3.org/2000/svg">
<g clip-path="url(#clip0_1_137)">
<path fill-rule="evenodd" clip-rule="evenodd" d="M65 30C65 31.3825 63.88 32.5 62.5 32.5C61.12 32.5 60 31.3825 60 30L60.055 23.5875L48.11 35.5325L44.575 31.9975L56.57 20H50C48.62 20 47.5 18.8825 47.5 17.5C47.5 16.12 48.62 15 50 15H62.43C63.1275 15 63.755 15.2876 64.21 15.7526C64.6925 16.1626 65 16.76 65 17.5V30ZM65 62.5C65 63.25 64.6925 63.85 64.21 64.25C63.7575 64.7 63.1275 65 62.43 65H50C48.62 65 47.5 63.875 47.5 62.5C47.5 61.125 48.62 60 50 60H56.57L44.575 48L48.11 44.4749L60.055 56.425L60 50C60 48.625 61.12 47.5 62.5 47.5C63.88 47.5 65 48.625 65 50V62.5ZM31.89 35.5325L19.945 23.5875L20 30C20 31.3825 18.88 32.5 17.5 32.5C16.12 32.5 15 31.3825 15 30V17.5C15 16.76 15.3075 16.1626 15.79 15.7526C16.245 15.2876 16.8725 15 17.57 15H30C31.38 15 32.5 16.12 32.5 17.5C32.5 18.8825 31.38 20 30 20H23.43L35.425 31.9975L31.89 35.5325ZM30 60C31.38 60 32.5 61.125 32.5 62.5C32.5 63.875 31.38 65 30 65H17.57C16.8725 65 16.2425 64.7 15.79 64.25C15.3075 63.85 15 63.25 15 62.5V50C15 48.625 16.12 47.5 17.5 47.5C18.88 47.5 20 48.625 20 50L19.945 56.425L31.89 44.4749L35.425 48L23.43 60H30ZM70 0H10C4.4775 0 0 4.4775 0 10V70C0 75.525 4.4775 80 10 80H70C75.5225 80 80 75.525 80 70V10C80 4.4775 75.5225 0 70 0Z" fill="black"/>
</g>
<defs>
<clipPath id="clip0_1_137">
<rect width="80" height="80" fill="white"/>
</clipPath>
</defs>
</svg>
