<svg width="81" height="80" viewBox="0 0 81 80" fill="none" xmlns="http://www.w3.org/2000/svg">
<g clip-path="url(#clip0_1_167)">
<path fill-rule="evenodd" clip-rule="evenodd" d="M78.2572 14.3199C76.9079 15.8346 74.6679 17.7626 71.4573 20.6986C68.0573 24.0906 63.244 24.0906 59.844 20.6986C56.4413 17.3012 56.4413 12.5013 59.844 9.10661C62.9773 5.97861 66.3452 2.27454 66.2919 2.25854C57.1852 -1.93612 46.0519 -0.314742 38.5479 7.17326C31.7079 13.9973 29.7586 23.8266 32.636 32.3892L3.69994 61.2693C-0.57739 65.536 -0.57739 72.4559 3.69994 76.7226C7.97728 80.9892 14.9106 80.9892 19.1879 76.7226L48.1212 47.8452C56.7078 50.7225 66.5559 48.7706 73.3959 41.9466C80.8892 34.4666 82.4466 23.3999 78.2572 14.3199Z" fill="black"/>
</g>
<defs>
<clipPath id="clip0_1_167">
<rect width="80" height="80" fill="white" transform="translate(0.5)"/>
</clipPath>
</defs>
</svg>
