<svg width="124" height="124" viewBox="0 0 124 124" fill="none" xmlns="http://www.w3.org/2000/svg">
<path d="M107.918 36.34V15.8118M107.918 15.8118H87.3896M107.918 15.8118L77.1255 46.6041M95.0877 108.189C51.1553 108.189 15.541 72.5743 15.541 28.6419C15.541 26.6598 15.6135 24.6946 15.7559 22.7489C15.9194 20.5159 16.0012 19.3994 16.5864 18.3831C17.071 17.5413 17.9299 16.743 18.8048 16.3211C19.8612 15.8118 21.0932 15.8118 23.5573 15.8118H38.0158C40.088 15.8118 41.124 15.8118 42.0122 16.1528C42.7967 16.454 43.4953 16.9433 44.0465 17.5777C44.6705 18.2958 45.0246 19.2695 45.7327 21.2169L51.7173 37.6746C52.541 39.9402 52.9531 41.0731 52.8833 42.1479C52.8217 43.0956 52.4979 44.0077 51.9487 44.7825C51.326 45.6612 50.2924 46.2814 48.2251 47.5218L41.2012 51.7361C47.3694 65.3304 58.3941 76.3694 71.9935 82.5284L76.2079 75.5047C77.4483 73.437 78.0683 72.4034 78.9469 71.7809C79.7218 71.2317 80.6338 70.9079 81.5817 70.8463C82.6563 70.7765 83.7895 71.1886 86.0553 72.0123L102.513 77.9968C104.46 78.705 105.434 79.0591 106.152 79.6832C106.786 80.2344 107.276 80.9328 107.577 81.7175C107.918 82.6054 107.918 83.6415 107.918 85.7139V100.172C107.918 102.636 107.918 103.868 107.408 104.925C106.986 105.8 106.188 106.659 105.347 107.143C104.33 107.728 103.214 107.81 100.981 107.974C99.0348 108.116 97.0697 108.189 95.0877 108.189Z" stroke="black" stroke-width="4.59586" stroke-linecap="round" stroke-linejoin="round"/>
</svg>
