<svg width="21" height="21" viewBox="0 0 21 21" fill="none" xmlns="http://www.w3.org/2000/svg">
<g clip-path="url(#clip0_1_18)">
<path fill-rule="evenodd" clip-rule="evenodd" d="M10.9739 14.875L8.93763 13.475L2.42575 20.2631C2.74575 20.4113 3.09825 20.5 3.47388 20.5H18.4739C18.8495 20.5 19.202 20.4113 19.522 20.2631L13.0101 13.475L10.9739 14.875ZM14.0583 12.7544L20.5301 19.4187C20.8089 19.015 20.9739 18.5275 20.9739 18V7.57312L14.0583 12.7544ZM20.8239 6.03188L10.9739 0.5L1.12387 6.03188L10.9739 13.41L20.8239 6.03188ZM0.973877 7.375V18C0.973877 18.5275 1.13889 19.015 1.41764 19.4187L7.89011 12.7544L0.973877 7.375Z" fill="black"/>
</g>
<defs>
<clipPath id="clip0_1_18">
<rect width="20" height="20" fill="white" transform="translate(0.973877 0.5)"/>
</clipPath>
</defs>
</svg>
