<svg width="40" height="40" viewBox="0 0 40 40" fill="none" xmlns="http://www.w3.org/2000/svg">
<circle cx="20" cy="20" r="20" fill="black"/>
<path fill-rule="evenodd" clip-rule="evenodd" d="M27.5 13.75H25.625L25 12.5C24.6319 11.7731 24.44 11.25 23.75 11.25H16.25C15.56 11.25 15.3313 11.8462 15 12.5L14.375 13.75H12.5C11.1194 13.75 10 14.8694 10 16.25V26.25C10 27.6306 11.1194 28.75 12.5 28.75H27.5C28.8806 28.75 30 27.6306 30 26.25V16.25C30 14.8694 28.8806 13.75 27.5 13.75ZM20 26.25C17.2387 26.25 15 24.0113 15 21.25C15 18.4887 17.2387 16.25 20 16.25C22.7613 16.25 25 18.4887 25 21.25C25 24.0113 22.7613 26.25 20 26.25ZM20 17.5C17.9294 17.5 16.25 19.1794 16.25 21.25C16.25 23.3206 17.9294 25 20 25C22.0706 25 23.75 23.3206 23.75 21.25C23.75 19.1794 22.0706 17.5 20 17.5Z" fill="white"/>
</svg>
