<svg width="40" height="40" viewBox="0 0 40 40" fill="none" xmlns="http://www.w3.org/2000/svg">
<circle cx="20" cy="20" r="20" fill="black"/>
<path fill-rule="evenodd" clip-rule="evenodd" d="M28.75 27.5C28.75 28.19 28.19 28.75 27.5 28.75H24.27L19.665 24.0844L25 18.7494L28.75 22.4994V27.5ZM12.5 28.75C11.81 28.75 11.25 28.19 11.25 27.5V26.9131L16.2156 22.4656L22.5006 28.75H12.5ZM15 12.5C16.3806 12.5 17.5 13.6194 17.5 15C17.5 16.3806 16.3806 17.5 15 17.5C13.6194 17.5 12.5 16.3806 12.5 15C12.5 13.6194 13.6194 12.5 15 12.5ZM27.5 10H12.5C11.1194 10 10 11.1194 10 12.5V27.5C10 28.8806 11.1194 30 12.5 30H27.5C28.8806 30 30 28.8806 30 27.5V12.5C30 11.1194 28.8806 10 27.5 10ZM15 16.25C15.69 16.25 16.25 15.69 16.25 15C16.25 14.31 15.69 13.75 15 13.75C14.31 13.75 13.75 14.31 13.75 15C13.75 15.69 14.31 16.25 15 16.25Z" fill="white"/>
</svg>
