<svg width="102" height="100" viewBox="0 0 102 100" fill="none" xmlns="http://www.w3.org/2000/svg">
<path fill-rule="evenodd" clip-rule="evenodd" d="M100.487 47.5244L100.493 47.5302C100.493 47.5302 100.328 41.2217 95.7498 32.3404C92.5356 26.1073 88.8965 21.8464 88.8965 21.8464L68.0461 0L67.3306 0.751225L67.3027 0.722221L66.7018 1.35163L60.8743 7.46295L60.2734 8.09525L61.0699 8.92769L69.3821 17.6204C69.2731 17.5334 69.1921 17.4754 69.1921 17.4754L69.4073 17.6465L70.2737 18.5544C70.6035 19.004 70.8858 19.5696 70.8998 20.2164C70.9222 21.3563 70.5588 22.0727 70.2374 22.4904L69.8433 22.9022C69.7958 22.9399 69.7622 22.9602 69.7622 22.9602L69.807 22.9399L50.5832 43.0374L30.8089 22.3656C30.5154 21.9335 30.222 21.2431 30.2415 20.2193C30.2527 19.6247 30.4903 19.0968 30.7838 18.6646L31.8319 17.5682L31.9493 17.4754C31.9493 17.4754 31.9101 17.5015 31.857 17.5421L40.0938 8.92769L40.6947 8.29829L40.0938 7.66888L39.2944 6.83064L33.0505 0.246541L12.1973 22.0901C12.1973 22.0901 8.55824 26.3509 5.34404 32.584C1.0985 40.8185 0.651308 46.8341 0.609383 47.6666L0.584229 47.7188L0.603793 47.7391V47.7768L0.620563 47.7565L1.18794 48.3482L23.9473 72.1467L24.5482 72.779L26.6165 74.9398L27.2202 75.5721L49.9795 99.3677L50.5832 100L51.1842 99.3677L73.9463 75.5721L74.5472 74.9427L76.6183 72.7732L77.2192 72.1437L99.9785 48.3482L100.579 47.7188L100.482 47.5244H100.487ZM45.2505 46.8283H25.3979V26.0696L45.2505 46.8283ZM23.6985 69.3709L3.84594 48.6092H23.6985V69.3709ZM23.6985 46.8283H3.84594L23.6985 26.0696V46.8283ZM25.3979 69.3709V48.6092H45.2505L25.3979 69.3709ZM49.7336 96.589L29.8782 75.8303H49.7336V96.589ZM49.7336 74.0581H29.8782L49.7336 53.2964V74.0581ZM51.4357 96.589V75.8303H71.2883L51.4357 96.589ZM51.4357 74.0581V53.2964L71.2883 74.0581H51.4357ZM75.7686 69.3651L55.9188 48.6092H75.7686V69.3651ZM75.7686 46.8283H55.9188L75.7686 26.0725V46.8283ZM77.4735 69.3651V48.6092H97.3233L77.4735 69.3651ZM77.4735 46.8283V26.0725L97.3233 46.8283H77.4735Z" fill="black"/>
<rect y="30.4542" width="101.155" height="30.8486" rx="15.4243" fill="black"/>
<path d="M10.1335 56.1935V35.2741H14.9749V52.2487H25.4645V56.1935H10.1335ZM37.86 56.5522C36.2462 56.5522 34.742 56.2932 33.3474 55.7752C31.9727 55.2372 30.7773 54.4801 29.7612 53.5039C28.7451 52.5277 27.9481 51.3821 27.3704 50.0671C26.8125 48.7522 26.5336 47.3077 26.5336 45.7338C26.5336 44.1599 26.8125 42.7154 27.3704 41.4005C27.9481 40.0856 28.7451 38.94 29.7612 37.9637C30.7972 36.9875 32.0025 36.2404 33.3772 35.7223C34.752 35.1844 36.2562 34.9155 37.8899 34.9155C39.7029 34.9155 41.3366 35.2342 42.791 35.8718C44.2653 36.4894 45.5006 37.4059 46.4967 38.6212L43.3887 41.4901C42.6715 40.6733 41.8745 40.0656 40.9979 39.6672C40.1213 39.2488 39.165 39.0396 38.129 39.0396C37.1527 39.0396 36.2562 39.199 35.4393 39.5177C34.6225 39.8365 33.9152 40.2947 33.3175 40.8924C32.7198 41.4901 32.2516 42.1974 31.9129 43.0143C31.5941 43.8311 31.4347 44.7376 31.4347 45.7338C31.4347 46.73 31.5941 47.6365 31.9129 48.4533C32.2516 49.2702 32.7198 49.9775 33.3175 50.5752C33.9152 51.1729 34.6225 51.6311 35.4393 51.9499C36.2562 52.2687 37.1527 52.428 38.129 52.428C39.165 52.428 40.1213 52.2288 40.9979 51.8303C41.8745 51.4119 42.6715 50.7844 43.3887 49.9476L46.4967 52.8165C45.5006 54.0319 44.2653 54.9583 42.791 55.5958C41.3366 56.2334 39.6929 56.5522 37.86 56.5522ZM59.4892 56.5522C57.8356 56.5522 56.3015 56.2832 54.8869 55.7453C53.4923 55.2073 52.277 54.4503 51.241 53.474C50.2249 52.4978 49.428 51.3522 48.8502 50.0372C48.2923 48.7223 48.0134 47.2878 48.0134 45.7338C48.0134 44.1798 48.2923 42.7453 48.8502 41.4304C49.428 40.1154 50.2349 38.9698 51.2709 37.9936C52.3069 37.0174 53.5222 36.2603 54.9168 35.7223C56.3115 35.1844 57.8256 34.9155 59.4593 34.9155C61.113 34.9155 62.6271 35.1844 64.0019 35.7223C65.3965 36.2603 66.6018 37.0174 67.6179 37.9936C68.6539 38.9698 69.4608 40.1154 70.0386 41.4304C70.6164 42.7254 70.9053 44.1599 70.9053 45.7338C70.9053 47.2878 70.6164 48.7323 70.0386 50.0671C69.4608 51.3821 68.6539 52.5277 67.6179 53.5039C66.6018 54.4602 65.3965 55.2073 64.0019 55.7453C62.6271 56.2832 61.1229 56.5522 59.4892 56.5522ZM59.4593 52.428C60.3957 52.428 61.2524 52.2687 62.0294 51.9499C62.8264 51.6311 63.5237 51.1729 64.1214 50.5752C64.7191 49.9775 65.1773 49.2702 65.4961 48.4533C65.8348 47.6365 66.0041 46.73 66.0041 45.7338C66.0041 44.7376 65.8348 43.8311 65.4961 43.0143C65.1773 42.1974 64.7191 41.4901 64.1214 40.8924C63.5436 40.2947 62.8563 39.8365 62.0593 39.5177C61.2624 39.199 60.3957 39.0396 59.4593 39.0396C58.5229 39.0396 57.6563 39.199 56.8593 39.5177C56.0823 39.8365 55.395 40.2947 54.7973 40.8924C54.1996 41.4901 53.7314 42.1974 53.3927 43.0143C53.0739 43.8311 52.9145 44.7376 52.9145 45.7338C52.9145 46.7101 53.0739 47.6166 53.3927 48.4533C53.7314 49.2702 54.1896 49.9775 54.7674 50.5752C55.3651 51.1729 56.0624 51.6311 56.8593 51.9499C57.6563 52.2687 58.5229 52.428 59.4593 52.428ZM78.8771 51.4119L78.6081 45.8235L88.6196 35.2741H93.9989L84.9736 44.9867L82.284 47.8556L78.8771 51.4119ZM74.5438 56.1935V35.2741H79.3553V56.1935H74.5438ZM88.8587 56.1935L81.4173 47.0786L84.5851 43.6419L94.5069 56.1935H88.8587Z" fill="white"/>
<circle cx="62.0784" cy="46.4171" r="1.93995" fill="white"/>
<circle cx="40.739" cy="46.4171" r="1.93995" fill="white"/>
<g clip-path="url(#clip0_1663_94)">
<path fill-rule="evenodd" clip-rule="evenodd" d="M59.584 13.4353C59.4802 13.042 59.2752 12.6831 58.9896 12.3943C58.704 12.1056 58.3479 11.8973 57.9569 11.7903C55.5707 11.5029 53.1684 11.3738 50.7653 11.4038C48.3622 11.3742 45.9598 11.5038 43.5738 11.7917C43.1829 11.8986 42.8269 12.1067 42.5413 12.3952C42.2557 12.6836 42.0507 13.0423 41.9466 13.4353C41.6811 14.9126 41.5522 16.4114 41.5616 17.9126C41.5524 19.4123 41.6813 20.9096 41.9466 22.3855C42.0504 22.7787 42.2554 23.1377 42.541 23.4265C42.8266 23.7152 43.1827 23.9235 43.5738 24.0305C45.9598 24.3184 48.3622 24.448 50.7653 24.4185C53.1684 24.448 55.5708 24.3184 57.9569 24.0305C58.3479 23.9235 58.704 23.7152 58.9896 23.4265C59.2752 23.1377 59.4802 22.7787 59.584 22.3855C59.8495 20.9086 59.9784 19.4103 59.969 17.9097C59.9784 16.4085 59.8496 14.9097 59.584 13.4324V13.4353ZM53.5983 17.933L48.8781 15.2394V20.6266L53.5983 17.933Z" fill="black"/>
</g>
<defs>
<clipPath id="clip0_1663_94">
<rect width="18.4408" height="12.9924" fill="white" transform="translate(41.5449 11.4249)"/>
</clipPath>
</defs>
</svg>
