<svg width="201" height="200" viewBox="0 0 201 200" fill="none" xmlns="http://www.w3.org/2000/svg">
<g clip-path="url(#clip0_1_69)">
<path fill-rule="evenodd" clip-rule="evenodd" d="M119.733 87.5751C102.433 87.5751 88.414 73.55 88.414 56.25C88.414 38.95 102.433 24.9313 119.733 24.9313C137.033 24.9313 151.052 38.95 151.052 56.25C151.052 73.55 137.033 87.5751 119.733 87.5751ZM38.4828 87.5C24.6765 87.5 13.4828 76.3063 13.4828 62.5C13.4828 48.6937 24.6765 37.5 38.4828 37.5C52.289 37.5 63.4828 48.6937 63.4828 62.5C63.4828 76.3063 52.289 87.5 38.4828 87.5ZM188.483 87.5L150.983 112.5C150.983 104.912 147.533 98.2 142.195 93.6188C154.895 85.9563 163.483 72.1625 163.483 56.25C163.483 32.0875 143.895 12.5 119.733 12.5C95.5703 12.5 75.9828 32.0875 75.9828 56.25C75.9828 68.5125 81.0577 79.5563 89.1765 87.5H66.2515C72.2327 80.8562 75.9828 72.15 75.9828 62.5C75.9828 41.7938 59.189 25 38.4828 25C17.7765 25 0.982788 41.7938 0.982788 62.5C0.982788 73.8063 6.08279 83.8124 13.9953 90.6937C6.27654 94.9437 0.982788 103.062 0.982788 112.5V162.5C0.982788 176.306 12.1765 187.5 25.9828 187.5H125.983C139.789 187.5 150.983 176.306 150.983 162.5L188.483 187.5C195.383 187.5 200.983 181.9 200.983 175V100C200.983 93.1 195.383 87.5 188.483 87.5Z" fill="black"/>
</g>
<defs>
<clipPath id="clip0_1_69">
<rect width="200" height="200" fill="white" transform="translate(0.982788)"/>
</clipPath>
</defs>
</svg>
