<svg width="121" height="121" viewBox="0 0 121 121" fill="none" xmlns="http://www.w3.org/2000/svg">
<g clip-path="url(#clip0_1_100)">
<path fill-rule="evenodd" clip-rule="evenodd" d="M60.7241 90.5C75.2216 90.5 86.9741 78.7475 86.9741 64.25V26.75C86.9741 12.2525 75.2216 0.5 60.7241 0.5C46.2266 0.5 34.4741 12.2525 34.4741 26.75V64.25C34.4741 78.7475 46.2266 90.5 60.7241 90.5ZM101.974 71.75H94.4741C91.0579 86.7763 76.7816 98 60.7241 98C44.6666 98 30.3904 86.7763 26.9741 71.75H19.4741C22.7854 89.7462 38.4604 103.662 56.9741 105.331V113H53.2241C51.1541 113 49.4741 114.68 49.4741 116.75C49.4741 118.824 51.1541 120.5 53.2241 120.5H68.2241C70.2941 120.5 71.9741 118.824 71.9741 116.75C71.9741 114.68 70.2941 113 68.2241 113H64.4741V105.331C82.9879 103.662 98.6629 89.7462 101.974 71.75Z" fill="black"/>
</g>
<defs>
<clipPath id="clip0_1_100">
<rect width="120" height="120" fill="white" transform="translate(0.724121 0.5)"/>
</clipPath>
</defs>
</svg>
