<svg width="21" height="21" viewBox="0 0 21 21" fill="none" xmlns="http://www.w3.org/2000/svg">
<g clip-path="url(#clip0_1_45)">
<path fill-rule="evenodd" clip-rule="evenodd" d="M14.2369 7.13118C14.2369 7.13118 9.74962 14.9512 9.67206 15.0211C9.41584 15.2627 9.0134 15.25 8.77371 14.9957L5.86694 12.3127C5.62661 12.0584 5.63997 11.6515 5.89619 11.4163C6.1524 11.1747 6.55485 11.1874 6.79517 11.4417L9.06998 13.5398L13.1358 6.4954C13.3112 6.19659 13.6997 6.08844 14.0042 6.26645C14.3081 6.43811 14.4124 6.83236 14.2369 7.13118ZM10.1724 0.5C4.5547 0.5 0 5.05216 0 10.6724C0 16.2927 4.5547 20.8448 10.1724 20.8448C15.7901 20.8448 20.3448 16.2927 20.3448 10.6724C20.3448 5.05216 15.7901 0.5 10.1724 0.5Z" fill="black"/>
</g>
<defs>
<clipPath id="clip0_1_45">
<rect width="20.3448" height="20.3448" fill="white" transform="translate(0 0.5)"/>
</clipPath>
</defs>
</svg>
