<svg width="121" height="121" viewBox="0 0 121 121" fill="none" xmlns="http://www.w3.org/2000/svg">
<g clip-path="url(#clip0_1_38)">
<path fill-rule="evenodd" clip-rule="evenodd" d="M105.241 23H93.9914L90.2414 15.5C88.0326 11.1388 86.8814 8 82.7414 8H37.7414C33.6014 8 32.2289 11.5775 30.2414 15.5L26.4914 23H15.2414C6.95764 23 0.241394 29.7162 0.241394 38V98C0.241394 106.284 6.95764 113 15.2414 113H105.241C113.525 113 120.241 106.284 120.241 98V38C120.241 29.7162 113.525 23 105.241 23ZM60.2414 98C43.6739 98 30.2414 84.5675 30.2414 68C30.2414 51.4325 43.6739 38 60.2414 38C76.8089 38 90.2414 51.4325 90.2414 68C90.2414 84.5675 76.8089 98 60.2414 98ZM60.2414 45.5C47.8176 45.5 37.7414 55.5763 37.7414 68C37.7414 80.4238 47.8176 90.5 60.2414 90.5C72.6651 90.5 82.7414 80.4238 82.7414 68C82.7414 55.5763 72.6651 45.5 60.2414 45.5Z" fill="black"/>
</g>
<defs>
<clipPath id="clip0_1_38">
<rect width="120" height="120" fill="white" transform="translate(0.241394 0.5)"/>
</clipPath>
</defs>
</svg>
